<svg width="43" height="43" viewBox="0 0 43 43" fill="none" xmlns="http://www.w3.org/2000/svg">
<g id="Group 153">
<circle id="Ellipse 10" cx="21.5" cy="21.5" r="21.5" fill="#FF8531"/>
<path id="Vector" d="M29.2604 16.9131H15.1866L14.9774 14.6528C14.9432 14.2832 14.6238 14 14.2412 14H12.7392C12.331 14 12 14.321 12 14.7169C12 15.1129 12.331 15.4339 12.7392 15.4339H13.5653C14.0168 20.3118 12.85 7.70419 14.4156 24.6204C14.4759 25.2825 14.8448 26.0009 15.4802 26.4891C14.3345 27.9081 15.3813 30 17.245 30C18.7918 30 19.8828 28.5038 19.3524 27.0868H23.3983C22.8685 28.502 23.9571 30 25.5056 30C26.7414 30 27.7468 29.0249 27.7468 27.8264C27.7468 26.628 26.7414 25.6529 25.5056 25.6529H17.25C16.6885 25.6529 16.1991 25.3243 15.9879 24.8456L27.8018 24.1723C28.1243 24.1539 28.3972 23.9345 28.4756 23.6305L29.9776 17.8039C30.0941 17.3521 29.7414 16.9131 29.2604 16.9131ZM17.245 28.5661C16.8245 28.5661 16.4823 28.2343 16.4823 27.8264C16.4823 27.4186 16.8245 27.0868 17.245 27.0868C17.6656 27.0868 18.0077 27.4186 18.0077 27.8264C18.0077 28.2343 17.6656 28.5661 17.245 28.5661ZM25.5056 28.5661C25.0851 28.5661 24.7429 28.2343 24.7429 27.8264C24.7429 27.4186 25.0851 27.0868 25.5056 27.0868C25.9262 27.0868 26.2683 27.4186 26.2683 27.8264C26.2683 28.2343 25.9262 28.5661 25.5056 28.5661ZM27.173 22.7718L15.7889 23.4206L15.3193 18.3469H28.3137L27.173 22.7718Z" fill="white"/>
</g>
</svg>
