<svg width="18" height="18" viewBox="0 0 18 18" fill="none" xmlns="http://www.w3.org/2000/svg">
<g id="Icons">
<g id="Group">
<g id="Group_2">
<path id="Vector" d="M9 18C4.02958 18 0 13.9704 0 9C0 4.02958 4.02958 0 9 0C13.9704 0 18 4.02958 18 9C18 13.9704 13.9704 18 9 18Z" fill="#FF8531"/>
</g>
<g id="Group_3">
<path id="Vector_2" d="M1.38462 9C1.38462 4.26254 5.04554 0.382846 9.69231 0.029077C9.4635 0.0117693 9.23331 0 9 0C4.02958 0 0 4.02958 0 9C0 13.9704 4.02958 18 9 18C9.23331 18 9.4635 17.9882 9.69231 17.9709C5.04554 17.6172 1.38462 13.7375 1.38462 9Z" fill="#FAFAFA"/>
</g>
<g id="Group_4">
<path id="Vector_3" d="M9.69207 10.3845V13.1538L15.2305 8.99992L9.69207 4.84607V7.6153H2.769V10.3845H9.69207Z" fill="#F0F0F0"/>
</g>
</g>
</g>
</svg>
